<svg width="720" height="720" viewBox="0 0 720 720" fill="none" xmlns="http://www.w3.org/2000/svg">
<rect width="720" height="720" fill="#1E1E1E"/>
<g clip-path="url(#clip0_0_1)">
<rect width="720" height="720" fill="url(#paint0_linear_0_1)"/>
<path d="M-123 606.535C-76 543.535 -8.7 451.135 202.5 459.535C466.5 470.035 563.5 529.535 680 539.535C837.655 553.067 1007.83 517.201 1100.5 470.535C1086.45 646.676 1230.79 955.478 1240.28 959.986C1240.53 960.008 1240.6 960.024 1240.5 960.035C1240.44 960.042 1240.37 960.025 1240.28 959.986C1222.9 958.456 333.266 930.507 -115.5 916.535L-123 606.535Z" fill="url(#paint1_linear_0_1)"/>
<path d="M-65 759.535C-18 696.535 49.3 604.135 260.5 612.535C524.5 623.035 621.5 682.535 738 692.535C895.655 706.067 1065.83 670.201 1158.5 623.535C1144.45 799.676 1288.79 1108.48 1298.28 1112.99C1298.53 1113.01 1298.6 1113.02 1298.5 1113.03C1298.44 1113.04 1298.37 1113.03 1298.28 1112.99C1280.9 1111.46 391.266 1083.51 -57.5 1069.53L-65 759.535Z" fill="url(#paint2_linear_0_1)"/>
<path d="M-362 323.535C-315 260.535 -247.7 168.135 -36.5 176.535C227.5 187.035 324.5 246.535 441 256.535C598.655 270.067 768.833 234.201 861.5 187.535C847.455 363.676 991.789 672.478 1001.28 676.986C1001.53 677.008 1001.6 677.024 1001.5 677.035C1001.44 677.042 1001.37 677.025 1001.28 676.986C983.897 675.456 94.2657 647.507 -354.5 633.535L-362 323.535Z" fill="url(#paint3_linear_0_1)"/>
<path d="M-474 163.535C-427 100.535 -359.7 8.13482 -148.5 16.5348C115.5 27.0348 212.5 86.5348 329 96.5348C486.655 110.067 656.833 74.2015 749.5 27.5348C735.455 203.676 879.789 512.478 889.284 516.986C889.526 517.008 889.599 517.024 889.5 517.035C889.438 517.042 889.366 517.025 889.284 516.986C871.897 515.456 -17.7343 487.507 -466.5 473.535L-474 163.535Z" fill="url(#paint4_linear_0_1)"/>
<g filter="url(#filter0_d_0_1)">
<path d="M304.753 366.694C305.449 368.328 306.112 369.939 306.739 371.528C308.371 375.337 309.645 378.785 310.563 381.872C311.583 384.959 312.093 387.422 312.093 389.261C312.195 391.1 311.685 392.02 310.563 392.02C308.83 392.02 307.198 391.461 305.669 390.345C304.241 389.228 302.916 387.849 301.692 386.207C300.57 384.499 299.602 382.824 298.786 381.183C297.97 379.475 297.358 378.063 296.95 376.946C296.542 375.83 296.339 375.271 296.339 375.271H279.513C268.297 375.271 261.413 378.063 258.864 383.646C256.315 389.228 252.899 392.02 248.616 392.02C247.596 392.02 247.087 391.1 247.087 389.261C247.189 387.422 247.698 384.959 248.616 381.872C249.534 378.785 250.757 375.337 252.287 371.528C252.946 369.962 253.631 368.374 254.341 366.765C271.276 372.64 287.635 373.296 304.753 366.694ZM279.513 327C280.635 327 282.012 327.92 283.643 329.759C285.275 331.598 287.11 334.06 289.149 337.146C291.189 340.233 293.279 343.715 295.421 347.59C296.951 350.313 298.429 353.121 299.855 356.012L287.547 356.285C287.205 355.261 286.772 354.168 286.243 353.008C281.756 343.156 277.27 343.156 272.783 353.008C272.205 354.305 271.745 355.518 271.397 356.645L258.87 356.923C260.417 353.709 261.995 350.598 263.606 347.59C265.748 343.715 267.837 340.233 269.877 337.146C271.916 334.06 273.752 331.598 275.384 329.759C277.117 327.92 278.494 327 279.513 327Z" fill="white" fill-opacity="0.8"/>
<path d="M320.766 357.49L240.582 359.495C240.47 359.498 240.456 359.658 240.563 359.693C271.373 369.769 280.725 375.197 320.797 357.686C320.898 357.643 320.875 357.488 320.766 357.49Z" fill="white" fill-opacity="0.8"/>
<path d="M331.206 365.735C332.734 365.735 334.132 365.963 335.4 366.418C336.668 366.84 337.887 367.539 339.057 368.515L336.911 371.343C336.001 370.693 335.107 370.221 334.229 369.929C333.384 369.604 332.441 369.441 331.401 369.441C329.32 369.441 327.695 370.27 326.525 371.928C325.387 373.586 324.818 376.041 324.818 379.292C324.818 382.543 325.387 384.948 326.525 386.509C327.662 388.037 329.288 388.801 331.401 388.801C332.409 388.801 333.335 388.654 334.181 388.362C335.026 388.037 335.969 387.533 337.009 386.85L339.057 389.776C336.716 391.662 334.099 392.604 331.206 392.604C327.727 392.604 324.98 391.434 322.965 389.093C320.982 386.753 319.99 383.518 319.99 379.389C319.99 376.658 320.445 374.269 321.356 372.221C322.266 370.173 323.55 368.58 325.208 367.442C326.898 366.304 328.898 365.735 331.206 365.735Z" fill="white" fill-opacity="0.8"/>
<path d="M358.101 390.849C356.411 392.019 354.493 392.604 352.347 392.604C350.169 392.604 348.462 391.987 347.227 390.751C346.024 389.483 345.423 387.663 345.423 385.29V369.783H340.936V366.32H345.423V360.517L349.909 359.981V366.32H356.004L355.517 369.783H349.909V385.095C349.909 386.427 350.137 387.403 350.592 388.02C351.079 388.606 351.876 388.898 352.981 388.898C353.989 388.898 355.127 388.557 356.395 387.874L358.101 390.849Z" fill="white" fill-opacity="0.8"/>
<path d="M367.236 366.32V392.019H362.75V366.32H367.236ZM364.944 353.983C365.887 353.983 366.651 354.276 367.236 354.861C367.821 355.446 368.114 356.177 368.114 357.055C368.114 357.933 367.821 358.664 367.236 359.249C366.651 359.802 365.887 360.078 364.944 360.078C364.034 360.078 363.286 359.802 362.701 359.249C362.116 358.664 361.823 357.933 361.823 357.055C361.823 356.177 362.116 355.446 362.701 354.861C363.286 354.276 364.034 353.983 364.944 353.983Z" fill="white" fill-opacity="0.8"/>
<path d="M388.606 365.735C390.947 365.735 392.767 366.434 394.068 367.832C395.401 369.23 396.067 371.148 396.067 373.586V392.019H391.581V374.22C391.581 372.4 391.239 371.115 390.557 370.368C389.874 369.62 388.866 369.246 387.533 369.246C386.168 369.246 384.965 369.636 383.925 370.417C382.884 371.197 381.909 372.318 380.999 373.781V392.019H376.513V366.32H380.365L380.755 370.124C381.665 368.759 382.787 367.686 384.12 366.905C385.485 366.125 386.981 365.735 388.606 365.735Z" fill="white" fill-opacity="0.8"/>
<path d="M409.572 366.32V392.019H405.085V366.32H409.572ZM407.28 353.983C408.223 353.983 408.987 354.276 409.572 354.861C410.157 355.446 410.449 356.177 410.449 357.055C410.449 357.933 410.157 358.664 409.572 359.249C408.987 359.802 408.223 360.078 407.28 360.078C406.37 360.078 405.622 359.802 405.037 359.249C404.451 358.664 404.159 357.933 404.159 357.055C404.159 356.177 404.451 355.446 405.037 354.861C405.622 354.276 406.37 353.983 407.28 353.983Z" fill="white" fill-opacity="0.8"/>
<path d="M437.964 392.019H434.111L433.77 388.02C432.795 389.613 431.673 390.784 430.405 391.531C429.137 392.247 427.593 392.604 425.773 392.604C423.529 392.604 421.774 391.922 420.506 390.556C419.238 389.191 418.604 387.256 418.604 384.753V366.32H423.09V384.266C423.09 386.021 423.399 387.273 424.017 388.02C424.635 388.736 425.643 389.093 427.04 389.093C429.544 389.093 431.689 387.614 433.477 384.656V366.32H437.964V392.019Z" fill="white" fill-opacity="0.8"/>
<path d="M473.027 365.735C475.14 365.735 476.83 366.45 478.098 367.881C479.366 369.279 480 371.18 480 373.586V392.019H475.514V374.22C475.514 370.904 474.311 369.246 471.905 369.246C470.637 369.246 469.564 369.62 468.687 370.368C467.809 371.083 466.866 372.221 465.858 373.781V392.019H461.372V374.22C461.372 370.904 460.169 369.246 457.763 369.246C456.463 369.246 455.374 369.62 454.496 370.368C453.618 371.115 452.692 372.253 451.717 373.781V392.019H447.23V366.32H451.083L451.473 370.075C453.391 367.182 455.862 365.735 458.885 365.735C460.478 365.735 461.827 366.142 462.932 366.954C464.07 367.767 464.883 368.905 465.371 370.368C466.378 368.872 467.484 367.734 468.687 366.954C469.922 366.142 471.369 365.735 473.027 365.735Z" fill="white" fill-opacity="0.8"/>
</g>
</g>
<defs>
<filter id="filter0_d_0_1" x="224.49" y="311" width="271.51" height="97.6043" filterUnits="userSpaceOnUse" color-interpolation-filters="sRGB">
<feFlood flood-opacity="0" result="BackgroundImageFix"/>
<feColorMatrix in="SourceAlpha" type="matrix" values="0 0 0 0 0 0 0 0 0 0 0 0 0 0 0 0 0 0 127 0" result="hardAlpha"/>
<feOffset/>
<feGaussianBlur stdDeviation="8"/>
<feComposite in2="hardAlpha" operator="out"/>
<feColorMatrix type="matrix" values="0 0 0 0 0 0 0 0 0 0 0 0 0 0 0 0 0 0 0.5 0"/>
<feBlend mode="normal" in2="BackgroundImageFix" result="effect1_dropShadow_0_1"/>
<feBlend mode="normal" in="SourceGraphic" in2="effect1_dropShadow_0_1" result="shape"/>
</filter>
<linearGradient id="paint0_linear_0_1" x1="0" y1="0" x2="720" y2="720" gradientUnits="userSpaceOnUse">
<stop stop-color="#2797FF"/>
<stop offset="1" stop-color="#441CB9"/>
</linearGradient>
<linearGradient id="paint1_linear_0_1" x1="558.771" y1="459" x2="558.771" y2="960.036" gradientUnits="userSpaceOnUse">
<stop stop-color="white" stop-opacity="0.15"/>
<stop offset="1" stop-color="white" stop-opacity="0"/>
</linearGradient>
<linearGradient id="paint2_linear_0_1" x1="616.771" y1="612" x2="616.771" y2="1113.04" gradientUnits="userSpaceOnUse">
<stop stop-color="white" stop-opacity="0.15"/>
<stop offset="1" stop-color="white" stop-opacity="0"/>
</linearGradient>
<linearGradient id="paint3_linear_0_1" x1="319.771" y1="176" x2="319.771" y2="677.036" gradientUnits="userSpaceOnUse">
<stop stop-color="white" stop-opacity="0.15"/>
<stop offset="1" stop-color="white" stop-opacity="0"/>
</linearGradient>
<linearGradient id="paint4_linear_0_1" x1="207.771" y1="16" x2="207.771" y2="517.036" gradientUnits="userSpaceOnUse">
<stop stop-color="white" stop-opacity="0.15"/>
<stop offset="1" stop-color="white" stop-opacity="0"/>
</linearGradient>
<clipPath id="clip0_0_1">
<rect width="720" height="720" fill="white"/>
</clipPath>
</defs>
</svg>
