<svg width="272" height="98" viewBox="0 0 272 98" fill="none" xmlns="http://www.w3.org/2000/svg">
<g filter="url(#filter0_d_3_2)">
<path d="M80.7527 55.6943C81.4487 57.3279 82.1116 58.9389 82.739 60.5283C84.3705 64.3375 85.6455 67.7853 86.5632 70.8721C87.5829 73.9588 88.0925 76.4218 88.0925 78.2607C88.1945 80.0997 87.6849 81.0195 86.5632 81.0195C84.8298 81.0195 83.1982 80.4611 81.6687 79.3447C80.2412 78.2283 78.9157 76.8488 77.6921 75.207C76.5705 73.4995 75.6016 71.8245 74.7859 70.1826C73.9701 68.475 73.3578 67.0628 72.95 65.9463C72.5421 64.83 72.3386 64.2715 72.3386 64.2715H55.5134C44.2966 64.2715 37.4133 67.0631 34.864 72.6455C32.3147 78.2279 28.8987 81.0195 24.616 81.0195C23.5963 81.0195 23.0867 80.0996 23.0867 78.2607C23.1886 76.4218 23.6982 73.9588 24.616 70.8721C25.5337 67.7854 26.7573 64.3374 28.2869 60.5283C28.9464 58.9619 29.631 57.374 30.3406 55.7646C47.2761 61.64 63.6351 62.2962 80.7527 55.6943ZM55.5134 16C56.6351 16.0001 58.0119 16.92 59.6433 18.7588C61.2747 20.5976 63.11 23.0601 65.1492 26.1465C67.1886 29.2333 69.2793 32.715 71.4207 36.5898C72.9515 39.313 74.4286 42.1208 75.8552 45.0117L63.5466 45.2852C63.2049 44.2613 62.7715 43.1684 62.2429 42.0078C57.7562 32.1564 53.2697 32.1564 48.783 42.0078C48.2055 43.3053 47.7448 44.5179 47.3972 45.6445L34.8699 45.9229C36.417 42.7095 37.9955 39.5984 39.6062 36.5898C41.7476 32.715 43.8373 29.2333 45.8767 26.1465C47.916 23.0599 49.7521 20.5977 51.3835 18.7588C53.117 16.9199 54.4937 16 55.5134 16Z" fill="white" fill-opacity="0.8"/>
<path d="M96.7658 46.4904L16.5821 48.495C16.4697 48.4978 16.4562 48.6585 16.563 48.6934C47.373 58.7685 56.7251 64.1968 96.7973 46.6864C96.8977 46.6425 96.8754 46.4877 96.7658 46.4904Z" fill="white" fill-opacity="1"/>
<path d="M107.206 54.7351C108.734 54.7351 110.132 54.9627 111.4 55.4178C112.668 55.8405 113.887 56.5394 115.057 57.5147L112.911 60.343C112.001 59.6929 111.107 59.2215 110.229 58.9289C109.384 58.6038 108.441 58.4412 107.401 58.4412C105.32 58.4412 103.695 59.2702 102.525 60.9282C101.387 62.5862 100.818 65.0407 100.818 68.2916C100.818 71.5426 101.387 73.9483 102.525 75.5088C103.662 77.0367 105.288 77.8007 107.401 77.8007C108.409 77.8007 109.335 77.6544 110.181 77.3618C111.026 77.0367 111.969 76.5328 113.009 75.8501L115.057 78.776C112.716 80.6615 110.099 81.6043 107.206 81.6043C103.727 81.6043 100.98 80.434 98.9647 78.0933C96.9817 75.7526 95.9901 72.5179 95.9901 68.3892C95.9901 65.6584 96.4452 63.2689 97.3555 61.2208C98.2658 59.1727 99.5499 57.5797 101.208 56.4419C102.898 55.3041 104.898 54.7351 107.206 54.7351Z" fill="white" fill-opacity="1"/>
<path d="M134.101 79.8488C132.411 81.0191 130.493 81.6043 128.347 81.6043C126.169 81.6043 124.462 80.9866 123.227 79.7513C122.024 78.4834 121.423 76.6628 121.423 74.2896V58.7826H116.936V55.3203H121.423V49.5174L125.909 48.981V55.3203H132.004L131.517 58.7826H125.909V74.0946C125.909 75.4275 126.137 76.4028 126.592 77.0204C127.079 77.6056 127.876 77.8982 128.981 77.8982C129.989 77.8982 131.127 77.5569 132.395 76.8742L134.101 79.8488Z" fill="white" fill-opacity="1"/>
<path d="M143.236 55.3203V81.0191H138.75V55.3203H143.236ZM140.944 42.9829C141.887 42.9829 142.651 43.2755 143.236 43.8607C143.821 44.4459 144.114 45.1773 144.114 46.0551C144.114 46.9329 143.821 47.6643 143.236 48.2495C142.651 48.8022 141.887 49.0785 140.944 49.0785C140.034 49.0785 139.286 48.8022 138.701 48.2495C138.116 47.6643 137.823 46.9329 137.823 46.0551C137.823 45.1773 138.116 44.4459 138.701 43.8607C139.286 43.2755 140.034 42.9829 140.944 42.9829Z" fill="white" fill-opacity="0.8"/>
<path d="M164.606 54.7351C166.947 54.7351 168.767 55.4341 170.068 56.832C171.401 58.2299 172.067 60.148 172.067 62.5862V81.0191H167.581V63.2201C167.581 61.3996 167.239 60.1155 166.557 59.3678C165.874 58.62 164.866 58.2462 163.533 58.2462C162.168 58.2462 160.965 58.6363 159.925 59.4165C158.884 60.1968 157.909 61.3183 156.999 62.7813V81.0191H152.513V55.3203H156.365L156.755 59.1239C157.665 57.7585 158.787 56.6857 160.12 55.9055C161.485 55.1253 162.981 54.7351 164.606 54.7351Z" fill="white" fill-opacity="0.8"/>
<path d="M185.572 55.3203V81.0191H181.085V55.3203H185.572ZM183.28 42.9829C184.223 42.9829 184.987 43.2755 185.572 43.8607C186.157 44.4459 186.449 45.1773 186.449 46.0551C186.449 46.9329 186.157 47.6643 185.572 48.2495C184.987 48.8022 184.223 49.0785 183.28 49.0785C182.37 49.0785 181.622 48.8022 181.037 48.2495C180.451 47.6643 180.159 46.9329 180.159 46.0551C180.159 45.1773 180.451 44.4459 181.037 43.8607C181.622 43.2755 182.37 42.9829 183.28 42.9829Z" fill="white" fill-opacity="1"/>
<path d="M213.964 81.0191H210.111L209.77 77.0204C208.795 78.6134 207.673 79.7838 206.405 80.5315C205.137 81.2467 203.593 81.6043 201.773 81.6043C199.529 81.6043 197.774 80.9216 196.506 79.5562C195.238 78.1908 194.604 76.2565 194.604 73.7532V55.3203H199.09V73.2656C199.09 75.0211 199.399 76.2727 200.017 77.0204C200.635 77.7357 201.643 78.0933 203.04 78.0933C205.544 78.0933 207.689 76.6141 209.477 73.6557V55.3203H213.964V81.0191Z" fill="white" fill-opacity="1"/>
<path d="M249.027 54.7351C251.14 54.7351 252.83 55.4504 254.098 56.8808C255.366 58.2787 256 60.1805 256 62.5862V81.0191H251.514V63.2201C251.514 59.9042 250.311 58.2462 247.905 58.2462C246.637 58.2462 245.564 58.62 244.687 59.3678C243.809 60.083 242.866 61.2208 241.858 62.7813V81.0191H237.372V63.2201C237.372 59.9042 236.169 58.2462 233.763 58.2462C232.463 58.2462 231.374 58.62 230.496 59.3678C229.618 60.1155 228.692 61.2533 227.717 62.7813V81.0191H223.23V55.3203H227.083L227.473 59.0752C229.391 56.1818 231.862 54.7351 234.885 54.7351C236.478 54.7351 237.827 55.1415 238.932 55.9543C240.07 56.767 240.883 57.9048 241.371 59.3678C242.378 57.8723 243.484 56.7345 244.687 55.9543C245.922 55.1415 247.369 54.7351 249.027 54.7351Z" fill="white" fill-opacity="0.8"/>
</g>
<defs>
<filter id="filter0_d_3_2" x="0.489899" y="0" width="271.51" height="97.6043" filterUnits="userSpaceOnUse" color-interpolation-filters="sRGB">
<feFlood flood-opacity="0" result="BackgroundImageFix"/>
<feColorMatrix in="SourceAlpha" type="matrix" values="0 0 0 0 0 0 0 0 0 0 0 0 0 0 0 0 0 0 127 0" result="hardAlpha"/>
<feOffset/>
<feGaussianBlur stdDeviation="8"/>
<feComposite in2="hardAlpha" operator="out"/>
<feColorMatrix type="matrix" values="0 0 0 0 0 0 0 0 0 0 0 0 0 0 0 0 0 0 0.5 0"/>
<feBlend mode="normal" in2="BackgroundImageFix" result="effect1_dropShadow_3_2"/>
<feBlend mode="normal" in="SourceGraphic" in2="effect1_dropShadow_3_2" result="shape"/>
</filter>
</defs>
</svg>
