<svg width="165" height="60" viewBox="0 0 165 60" fill="none" xmlns="http://www.w3.org/2000/svg">
<g opacity="0.9">
<path d="M40.3402 3.35136C32.2201 0.395887 21.2949 9.93101 15.9381 24.6486C10.5814 39.3663 12.8215 53.6932 20.9416 56.6486C29.0617 59.6041 39.9868 50.069 45.3436 35.3514C50.7004 20.6337 48.4603 6.30683 40.3402 3.35136Z" stroke="white" stroke-width="3.81202"/>
<path d="M48.8509 51.7313C55.4704 46.1768 52.6753 31.9478 42.6079 19.9498C32.5404 7.95191 19.0129 2.72845 12.3934 8.28292C5.77381 13.8374 8.56888 28.0664 18.6363 40.0644C28.7038 52.0623 42.2313 57.2857 48.8509 51.7313Z" stroke="white" stroke-width="3.81202"/>
<path d="M2.71692 34.9401C4.21745 43.4501 17.9377 48.144 33.3619 45.4242C48.7862 42.7045 60.0736 33.6011 58.573 25.0912C57.0725 16.5812 43.3523 11.8873 27.928 14.607C12.5038 17.3267 1.21638 26.4302 2.71692 34.9401Z" stroke="white" stroke-width="3.81202"/>
</g>
<path opacity="0.9" d="M69.176 39H67.16V22.248H73.256C74.808 22.248 75.992 22.672 76.808 23.52C77.624 24.368 78.032 25.552 78.032 27.072C78.032 28.432 77.68 29.52 76.976 30.336C76.272 31.152 75.248 31.624 73.904 31.752L78.176 39H75.92L71.84 31.848H69.176V39ZM73.208 30.144C74.056 30.144 74.712 29.936 75.176 29.52C75.656 29.088 75.896 28.48 75.896 27.696V26.448C75.896 25.664 75.656 25.064 75.176 24.648C74.712 24.216 74.056 24 73.208 24H69.176V30.144H73.208ZM86.5906 39.288C85.7266 39.288 84.9426 39.136 84.2386 38.832C83.5506 38.528 82.9586 38.096 82.4626 37.536C81.9826 36.96 81.6146 36.28 81.3586 35.496C81.1026 34.696 80.9746 33.8 80.9746 32.808C80.9746 31.832 81.1026 30.944 81.3586 30.144C81.6146 29.344 81.9826 28.664 82.4626 28.104C82.9586 27.528 83.5506 27.088 84.2386 26.784C84.9426 26.48 85.7266 26.328 86.5906 26.328C87.4546 26.328 88.2306 26.48 88.9186 26.784C89.6226 27.088 90.2146 27.528 90.6946 28.104C91.1906 28.664 91.5666 29.344 91.8226 30.144C92.0786 30.944 92.2066 31.832 92.2066 32.808C92.2066 33.8 92.0786 34.696 91.8226 35.496C91.5666 36.28 91.1906 36.96 90.6946 37.536C90.2146 38.096 89.6226 38.528 88.9186 38.832C88.2306 39.136 87.4546 39.288 86.5906 39.288ZM86.5906 37.632C87.6626 37.632 88.5266 37.312 89.1826 36.672C89.8386 36.032 90.1666 35.04 90.1666 33.696V31.92C90.1666 30.576 89.8386 29.584 89.1826 28.944C88.5266 28.304 87.6626 27.984 86.5906 27.984C85.5186 27.984 84.6546 28.304 83.9986 28.944C83.3426 29.584 83.0146 30.576 83.0146 31.92V33.696C83.0146 35.04 83.3426 36.032 83.9986 36.672C84.6546 37.312 85.5186 37.632 86.5906 37.632ZM101.581 39C100.637 39 99.9413 38.736 99.4933 38.208C99.0613 37.68 98.8453 37 98.8453 36.168V28.248H94.7173V26.616H97.7893C98.2053 26.616 98.4933 26.536 98.6533 26.376C98.8293 26.2 98.9173 25.904 98.9173 25.488V22.248H100.765V26.616H106.405V28.248H100.765V37.368H106.405V39H101.581ZM118.3 36.984H118.204C118.076 37.288 117.916 37.584 117.724 37.872C117.532 38.144 117.292 38.384 117.004 38.592C116.732 38.8 116.404 38.968 116.02 39.096C115.636 39.224 115.188 39.288 114.676 39.288C113.38 39.288 112.34 38.88 111.556 38.064C110.772 37.232 110.38 36.064 110.38 34.56V26.616H112.3V34.224C112.3 35.36 112.548 36.208 113.044 36.768C113.54 37.312 114.268 37.584 115.228 37.584C115.612 37.584 115.988 37.536 116.356 37.44C116.724 37.344 117.052 37.2 117.34 37.008C117.628 36.816 117.86 36.576 118.036 36.288C118.212 35.984 118.3 35.624 118.3 35.208V26.616H120.22V39H118.3V36.984ZM124.411 37.368H128.035V28.248H124.411V26.616H129.955V29.736H130.075C130.331 28.76 130.811 28 131.515 27.456C132.235 26.896 133.147 26.616 134.251 26.616H135.979V28.536H133.651C132.547 28.536 131.651 28.856 130.963 29.496C130.291 30.136 129.955 30.976 129.955 32.016V37.368H134.755V39H124.411V37.368ZM145.161 24V39H143.145V24H137.553V22.248H150.753V24H145.161ZM153.504 39L152.184 22.248H153.984L154.68 31.848L155.04 36.912H155.232L157.44 26.616H159.696L161.904 36.912H162.096L162.456 31.848L163.152 22.248H164.904L163.584 39H160.68L158.64 28.992H158.448L156.408 39H153.504Z" fill="white"/>
</svg>
